<?xml version="1.0" encoding="UTF-8"?>
<svg id="Flash_Chord_Logo" data-name="Flash Chord Logo" xmlns="http://www.w3.org/2000/svg" viewBox="0 0 367.43 57.56">
  <defs>
    <style>
      .cls-1 {
        fill: #231f20;
      }

      .cls-1, .cls-2 {
        stroke-width: 0px;
      }

      .cls-2 {
        fill: #939598;
      }
    </style>
  </defs>
  <g id="Staff">
    <rect class="cls-2" x="0" y="27.99" width="367.43" height="1.59"/>
    <rect class="cls-2" x="0" y="39.71" width="367.43" height="1.59"/>
    <rect class="cls-2" y="50.62" width="367.43" height="1.59"/>
    <rect class="cls-2" y="4.57" width="367.43" height="1.59"/>
    <rect class="cls-2" y="16.28" width="367.43" height="1.59"/>
  </g>
  <g id="Flash_Chord_Letters" data-name="Flash Chord Letters">
    <path class="cls-1" d="m51.43,7.64c-.09.69-.39,1.41-.9,2.18-.64.9-1.37,1.39-2.18,1.48-.3.04-.69-.03-1.16-.23-.47-.19-.83-.29-1.09-.29-.77,0-2.61.62-5.53,1.86-3.17,1.33-5.46,2.55-6.87,3.66v11.76c.21-.09,1.22-.68,3.02-1.8,1.2-.73,2.16-1.11,2.89-1.16.77-.04,2.21,1.16,4.3,3.6,2.1,2.44,3.1,4.07,3.02,4.88-.09.77-.51,1.54-1.29,2.31-.6.6-1.2.99-1.8,1.16-.26.09-.6.03-1.03-.16-.43-.19-.73-.29-.9-.29-.13,0-.26.04-.39.13-1.24.51-2.33.99-3.28,1.41-2.36,1.07-3.88,1.95-4.56,2.63v9.38c0,.39.22.85.67,1.38.45.54.67,1.1.67,1.7-.09,2.4-1.22,3.83-3.41,4.3-2.4-1.11-4.43-2.33-6.1-3.66-1.84-1.5-2.76-2.8-2.76-3.92V7.51c0-.68-.25-1.38-.74-2.09-.49-.71-.7-1.23-.61-1.57.13-.69.54-1.34,1.22-1.96.68-.62,1.46-.97,2.31-1.06.39-.04,1.56.57,3.53,1.83,1.97,1.26,3.28,1.96,3.92,2.09l7.07-2.89c.56-.43,1.52-.92,2.89-1.48,1.07-.13,2.87.83,5.4,2.86,2.53,2.03,3.75,3.5,3.66,4.4Z"/>
    <path class="cls-1" d="m66.91,4.68c0,.3-.1.71-.29,1.22-.19.51-.31.84-.35.96-.26.86-.51,2.18-.77,3.98v39.45c0,.51.13.97.39,1.38.26.41.39.74.39,1,0,2.74-.51,4.22-1.54,4.43-.39.09-1.75-.2-4.08-.87-2.33-.66-3.74-1.19-4.21-1.57-.94-.81-1.41-1.56-1.41-2.25,0-.17.09-.36.26-.58.17-.21.26-.58.26-1.09V5.45c0-.26-.08-.52-.22-.8-.15-.28-.23-.55-.23-.8.09-1.03.88-1.71,2.38-2.06.43-.09,1.33-.09,2.7,0,1.58.13,2.96.36,4.11.71,1.76.51,2.63,1.24,2.63,2.18Z"/>
    <path class="cls-1" d="m101.48,53.25c-.04.6-.3,1.11-.77,1.54-.47.43-1.01.6-1.61.51-5.31-.73-8.27-1.73-8.87-3.02-.09-.17-.13-.34-.13-.51,0-.21.1-.45.29-.71.19-.26.31-.48.35-.67.04-.19.13-.37.26-.55.09-.34.11-1.09.06-2.25-.51.39-1.29,1.41-2.31,3.08-1.07,1.84-2.01,3.13-2.83,3.85-1.37,1.28-2.93,1.93-4.69,1.93-1.03,0-2.03-.41-3.02-1.22-.47-.39-1.31-1.22-2.51-2.51-2.06-2.31-3.17-3.58-3.34-3.79-.9-1.2-1.35-2.33-1.35-3.4,0-.34.04-.68.13-1.03.81-3.77,3.34-7.35,7.58-10.73,3.08-2.44,7.45-5.03,13.11-7.77,0-1.37-.34-2.25-1.03-2.63-.43-.26-1.93.22-4.5,1.45s-4.37,2.26-5.4,3.12c-.34.34-.9.81-1.67,1.41-.73.43-1.39.56-1.99.39-.47-.13-1.48-.9-3.02-2.31-1.54-1.41-2.38-2.35-2.51-2.83-.34-1.16.02-2.06,1.09-2.7.04-.04.9-.3,2.57-.77,1.58-.86,3.17-1.71,4.75-2.57,3.34-1.58,6.17-2.44,8.48-2.57.98-.04,2.1.47,3.34,1.54,1.11.99,2.24,1.96,3.37,2.92,1.13.96,2.3,1.9,3.5,2.79,1.37,1.2,2.06,2.36,2.06,3.47v24.29c.43,1.11.62,1.86.58,2.25Zm-10.28-18.76c-2.1.81-3.9,2.06-5.4,3.73-1.11,1.37-2.23,2.72-3.34,4.05-.9.9-1.75,2.07-2.54,3.5-.79,1.44-1.19,2.5-1.19,3.18,0,.34.13.51.39.51.9,0,2.91-1.94,6.04-5.81,3.13-3.88,5.14-6.93,6.04-9.16Z"/>
    <path class="cls-1" d="m130.13,48.3c0,2.36-.78,4.24-2.34,5.65-1.56,1.41-3.76,2.14-6.59,2.18-.69,0-1.44-.11-2.25-.32-1.46-.39-2.23-.6-2.31-.64-.77-.17-1.55-.35-2.35-.55-.79-.19-1.47-.52-2.02-1-.94-.86-1.86-2.03-2.76-3.53-.73-1.2-1.44-2.42-2.12-3.66-.69-1.24-1.03-1.99-1.03-2.25,0-.6.43-1.05,1.29-1.35.21-.08.6-.13,1.16-.13,1.29,0,2.9.14,4.85.42,1.95.28,3.01.51,3.18.71.17.19.41,1.42.71,3.69.26,1.97.71,2.96,1.35,2.96.98,0,1.48-1.33,1.48-3.98,0-3.38-.9-5.5-2.7-6.36-4.11-1.93-6.81-3.64-8.1-5.14-1.58-1.84-2.38-4.63-2.38-8.35,0-2.44.64-4.74,1.93-6.91,1.29-2.16,2.8-3.46,4.56-3.89.77-.17,3.25.64,7.45,2.44.39.13,1.52.36,3.41.71,1.33.26,2.27.71,2.83,1.35.81.99,1.28,2.55,1.41,4.69.04,1.58.06,3.17.06,4.75.3,1.46.45,2.31.45,2.57,0,1.2-.58,1.89-1.73,2.06-.6.09-1.78-.15-3.53-.71-1.93-.64-3.15-1.31-3.66-1.99-.13-.17-.26-1.78-.39-4.82-.13-2.87-.43-4.3-.9-4.3-.64,0-1.24.83-1.8,2.51-.56,1.67-.84,3.41-.84,5.2,0,2.27.49,3.71,1.48,4.3,2.1,1.16,4.19,2.32,6.26,3.5,2.08,1.18,3.52,2.39,4.34,3.63,1.07,1.63,1.61,3.81,1.61,6.55Z"/>
    <path class="cls-1" d="m165.34,53.25c-.21,1.24-.69,2.03-1.41,2.38-.3.13-.84.19-1.61.19-1.46,0-3.19-.22-5.2-.67-2.01-.45-3.23-.89-3.66-1.32-.17-.21-.26-.47-.26-.77,0-.34.19-.98.58-1.93.26-.34.54-.72.84-1.12.3-.41.45-.93.45-1.57.09-16.88-.04-25.38-.39-25.51-.64-.21-2.12,1.35-4.43,4.69-2.48,3.56-3.73,6.4-3.73,8.54v14.26c.68.69.92,1.58.71,2.7-.26,1.33-.94,2.23-2.06,2.7-.17.09-.43.13-.77.13-1.16,0-2.85-.27-5.08-.8-2.23-.54-3.45-.93-3.66-1.19-.47-.68-.51-1.48-.13-2.38.04-.13.25-.35.61-.67.36-.32.55-.63.55-.93V4.55c0-.34-.17-.79-.51-1.35-.34-.56-.45-1.03-.32-1.41.26-.9.92-1.48,1.99-1.73.68-.17,2.29.06,4.82.71,2.74.69,4.24,1.39,4.5,2.12.17.47.11,1.18-.19,2.12-.3.94-.45,2.1-.45,3.47v12.01c2.4-3.04,4.71-4.56,6.94-4.56,1.46,0,3.34.5,5.65,1.51,2.31,1.01,3.64,1.92,3.98,2.73,1.2,2.74,1.8,12.87,1.8,30.39.43,1.03.58,1.93.45,2.7Z"/>
    <path class="cls-1" d="m216.93,41.62c-.13,1.07-.54,1.93-1.22,2.57-1.24,2.66-3.15,5.33-5.72,8.03-2.79,2.87-5.03,4.3-6.75,4.3-.26,0-.49-.02-.71-.06-1.88-.6-4-1.35-6.36-2.25-4.2-1.71-7.41-4.99-9.64-9.83-1.97-4.37-2.96-9.44-2.96-15.23,0-7.07,1.35-13.3,4.05-18.7,2.87-5.74,6.47-8.72,10.79-8.93,1.67-.09,4.12.77,7.36,2.57,3.23,1.8,5.36,3.59,6.39,5.36,1.03,1.78,1.73,5.66,2.12,11.66.08,1.28-.09,2.59-.51,3.92-.51,1.58-1.18,2.31-1.99,2.18-1.5-.21-3.38-.69-5.65-1.41-2.74-.9-4.22-1.65-4.43-2.25-.09-.21-.13-.41-.13-.58,0-.39.18-.87.55-1.45.36-.58.55-1.06.55-1.45.21-1.76.32-3.4.32-4.95,0-2.23-.26-3.77-.77-4.63-2.57,1.89-4.52,5.03-5.85,9.44-1.11,3.73-1.67,7.95-1.67,12.66,0,3.64.32,6.89.96,9.73.64,2.85,1.41,4.57,2.31,5.17.43.26,1.62-.61,3.57-2.6,1.95-1.99,3.2-3.59,3.76-4.79.04-.04.24-.73.58-2.06.26-.77.6-1.24,1.03-1.41.73-.26,2.6.35,5.62,1.83,3.02,1.48,4.49,2.52,4.4,3.12Z"/>
    <path class="cls-1" d="m250.59,53.25c-.21,1.24-.69,2.03-1.41,2.38-.3.13-.83.19-1.61.19-1.46,0-3.19-.22-5.2-.67-2.01-.45-3.23-.89-3.66-1.32-.17-.21-.26-.47-.26-.77,0-.34.19-.98.58-1.93.26-.34.54-.72.83-1.12.3-.41.45-.93.45-1.57.08-16.88-.04-25.38-.39-25.51-.64-.21-2.12,1.35-4.43,4.69-2.49,3.56-3.73,6.4-3.73,8.54v14.26c.68.69.92,1.58.71,2.7-.26,1.33-.94,2.23-2.06,2.7-.17.09-.43.13-.77.13-1.16,0-2.85-.27-5.08-.8-2.23-.54-3.45-.93-3.66-1.19-.47-.68-.51-1.48-.13-2.38.04-.13.25-.35.61-.67.36-.32.55-.63.55-.93V4.55c0-.34-.17-.79-.51-1.35-.34-.56-.45-1.03-.32-1.41.26-.9.92-1.48,1.99-1.73.68-.17,2.29.06,4.82.71,2.74.69,4.24,1.39,4.5,2.12.17.47.11,1.18-.19,2.12-.3.94-.45,2.1-.45,3.47v12.01c2.4-3.04,4.71-4.56,6.94-4.56,1.46,0,3.34.5,5.65,1.51,2.31,1.01,3.64,1.92,3.98,2.73,1.2,2.74,1.8,12.87,1.8,30.39.43,1.03.58,1.93.45,2.7Z"/>
    <path class="cls-1" d="m277.9,17.85c2.35,1.11,4.18,3.36,5.46,6.75,1.16,3.08,1.73,6.72,1.73,10.92,0,5.78-.99,10.79-2.96,15.03-2.18,4.54-4.91,6.6-8.16,6.17-1.2-.3-3-.66-5.4-1.09-1.76-.21-3.34-.54-4.75-.96-2.44-.64-4.39-2.72-5.85-6.23-1.33-3.25-1.99-7.07-1.99-11.44s.68-8.42,2.06-12.01c1.54-3.94,3.7-6.7,6.49-8.29.47-.26,1.11-.39,1.93-.39.86,0,2.55.28,5.08.84,1.63,0,3.75.24,6.36.71Zm-7.2,5.78c-1.16,0-2.23,1.4-3.21,4.21-.99,2.81-1.48,5.49-1.48,8.06,0,3.08.36,6.13,1.09,9.12.81,3.26,1.76,5.01,2.83,5.27,1.37.3,2.59-1.24,3.66-4.63,1.03-3.25,1.54-6.85,1.54-10.79,0-2.18-.28-4.35-.84-6.49-.77-3.17-1.97-4.75-3.6-4.75Z"/>
    <path class="cls-1" d="m314.39,20.61c.17.69-.06,1.24-.71,1.67-.51.26-1.01.54-1.48.83-2.7,4.11-6.36,9.66-10.99,16.64,0,6.81.02,10.32.06,10.54.04.21.2.76.48,1.64.28.88.42,1.57.42,2.09,0,.81-.36,1.37-1.09,1.67-.47.21-1.11.32-1.93.32-1.63,0-3.43-.36-5.4-1.09-2.48-.86-3.73-1.95-3.73-3.28,0-.39.17-1.01.51-1.86.34-.86.51-1.56.51-2.12v-25.44c-.47-2.4-.71-3.64-.71-3.73,0-1.33.6-2.16,1.8-2.51.51-.13,1.13-.19,1.86-.19,1.5,0,3.07.25,4.72.74,1.65.49,2.62,1.02,2.92,1.57.09.17.13.39.13.64,0,.21-.3,1.24-.9,3.08v3.08c1.03-1.84,2.03-3.68,3.02-5.53,1.33-2.31,2.31-3.53,2.96-3.66.94-.17,2.38.39,4.3,1.67,1.93,1.28,3,2.36,3.21,3.21Z"/>
    <path class="cls-1" d="m344.52,5.26c.08.43-.08,1.26-.48,2.51-.41,1.24-.61,1.95-.61,2.12v41.89c0,1.41.11,2.29.32,2.63.64,1.11.84,1.86.58,2.25-.21.34-.77.51-1.67.51-.99,0-2.48-.19-4.5-.58-2.27-.47-3.47-.71-3.6-.71-.77-.09-1.33-.6-1.67-1.54-.04-.09-.06-.36-.06-.83,0-1.76.24-4.37.71-7.84-1.03,2.06-2.04,4.11-3.02,6.17-1.41,2.53-2.68,3.68-3.79,3.47-8.44-1.71-12.66-6.9-12.66-15.55,0-4.93,1.35-9.94,4.05-15.03,2.61-4.92,5.48-8.14,8.61-9.64.43-.21.83-.32,1.22-.32,1.07,0,2.93,1.33,5.59,3.98V6.29c-.04-.34-.24-.95-.58-1.83-.34-.88-.51-1.53-.51-1.96,0-.9.6-1.35,1.8-1.35,1.07,0,2.61.3,4.62.9,1.29.43,2.55.84,3.79,1.22,1.07.3,1.69.96,1.86,1.99Zm-11.18,16.58c-2.4,1.07-4.57,3.43-6.52,7.07-1.95,3.64-2.92,7.02-2.92,10.15,0,3.64,1.41,5.63,4.24,5.98,1.5.17,3.23-7.56,5.2-23.19Z"/>
  </g>
</svg>